P1 7 3
0001000
0011100
0110010
